<svg width="84" height="114" viewBox="0 0 84 114" fill="none" xmlns="http://www.w3.org/2000/svg">
    <g opacity="0.3">
        <mask id="mask0" mask-type="alpha" maskUnits="userSpaceOnUse" x="12" y="0" width="11" height="12">
            <path d="M17.7021 11.1969C20.5857 11.1969 22.9234 8.90864 22.9234 6.08593C22.9234 3.26322 20.5857 0.974976 17.7021 0.974976C14.8184 0.974976 12.4807 3.26322 12.4807 6.08593C12.4807 8.90864 14.8184 11.1969 17.7021 11.1969Z" fill="url(#paint0_linear)"/>
        </mask>
        <g mask="url(#mask0)">
            <path d="M17.7021 11.1969C20.5857 11.1969 22.9234 8.90864 22.9234 6.08593C22.9234 3.26322 20.5857 0.974976 17.7021 0.974976C14.8184 0.974976 12.4807 3.26322 12.4807 6.08593C12.4807 8.90864 14.8184 11.1969 17.7021 11.1969Z" fill="url(#paint1_linear)"/>
        </g>
        <mask id="mask1" mask-type="alpha" maskUnits="userSpaceOnUse" x="42" y="0" width="12" height="12">
            <path d="M47.9424 11.1969C50.8261 11.1969 53.1637 8.90864 53.1637 6.08593C53.1637 3.26322 50.8261 0.974976 47.9424 0.974976C45.0587 0.974976 42.721 3.26322 42.721 6.08593C42.721 8.90864 45.0587 11.1969 47.9424 11.1969Z" fill="url(#paint2_linear)"/>
        </mask>
        <g mask="url(#mask1)">
            <path d="M47.9424 11.1969C50.8261 11.1969 53.1637 8.90864 53.1637 6.08593C53.1637 3.26322 50.8261 0.974976 47.9424 0.974976C45.0587 0.974976 42.721 3.26322 42.721 6.08593C42.721 8.90864 45.0587 11.1969 47.9424 11.1969Z" fill="url(#paint3_linear)"/>
        </g>
        <mask id="mask2" mask-type="alpha" maskUnits="userSpaceOnUse" x="72" y="0" width="12" height="12">
            <path d="M78.1827 11.1969C81.0664 11.1969 83.4041 8.90864 83.4041 6.08593C83.4041 3.26322 81.0664 0.974976 78.1827 0.974976C75.299 0.974976 72.9614 3.26322 72.9614 6.08593C72.9614 8.90864 75.299 11.1969 78.1827 11.1969Z" fill="url(#paint4_linear)"/>
        </mask>
        <g mask="url(#mask2)">
            <path d="M78.1827 11.1969C81.0664 11.1969 83.4041 8.90864 83.4041 6.08593C83.4041 3.26322 81.0664 0.974976 78.1827 0.974976C75.299 0.974976 72.9614 3.26322 72.9614 6.08593C72.9614 8.90864 75.299 11.1969 78.1827 11.1969Z" fill="url(#paint5_linear)"/>
        </g>
        <mask id="mask3" mask-type="alpha" maskUnits="userSpaceOnUse" x="12" y="26" width="11" height="11">
            <path d="M17.7021 36.8582C20.5857 36.8582 22.9234 34.57 22.9234 31.7473C22.9234 28.9246 20.5857 26.6364 17.7021 26.6364C14.8184 26.6364 12.4807 28.9246 12.4807 31.7473C12.4807 34.57 14.8184 36.8582 17.7021 36.8582Z" fill="url(#paint6_linear)"/>
        </mask>
        <g mask="url(#mask3)">
            <path d="M17.7021 36.8582C20.5857 36.8582 22.9234 34.57 22.9234 31.7473C22.9234 28.9246 20.5857 26.6364 17.7021 26.6364C14.8184 26.6364 12.4807 28.9246 12.4807 31.7473C12.4807 34.57 14.8184 36.8582 17.7021 36.8582Z" fill="url(#paint7_linear)"/>
        </g>
        <mask id="mask4" mask-type="alpha" maskUnits="userSpaceOnUse" x="42" y="26" width="12" height="11">
            <path d="M47.9424 36.8582C50.8261 36.8582 53.1637 34.57 53.1637 31.7473C53.1637 28.9246 50.8261 26.6364 47.9424 26.6364C45.0587 26.6364 42.721 28.9246 42.721 31.7473C42.721 34.57 45.0587 36.8582 47.9424 36.8582Z" fill="url(#paint8_linear)"/>
        </mask>
        <g mask="url(#mask4)">
            <path d="M47.9424 36.8582C50.8261 36.8582 53.1637 34.57 53.1637 31.7473C53.1637 28.9246 50.8261 26.6364 47.9424 26.6364C45.0587 26.6364 42.721 28.9246 42.721 31.7473C42.721 34.57 45.0587 36.8582 47.9424 36.8582Z" fill="url(#paint9_linear)"/>
        </g>
        <mask id="mask5" mask-type="alpha" maskUnits="userSpaceOnUse" x="72" y="26" width="12" height="11">
            <path d="M78.1827 36.8582C81.0664 36.8582 83.4041 34.57 83.4041 31.7473C83.4041 28.9246 81.0664 26.6364 78.1827 26.6364C75.299 26.6364 72.9614 28.9246 72.9614 31.7473C72.9614 34.57 75.299 36.8582 78.1827 36.8582Z" fill="url(#paint10_linear)"/>
        </mask>
        <g mask="url(#mask5)">
            <path d="M78.1827 36.8582C81.0664 36.8582 83.4041 34.57 83.4041 31.7473C83.4041 28.9246 81.0664 26.6364 78.1827 26.6364C75.299 26.6364 72.9614 28.9246 72.9614 31.7473C72.9614 34.57 75.299 36.8582 78.1827 36.8582Z" fill="url(#paint11_linear)"/>
        </g>
        <mask id="mask6" mask-type="alpha" maskUnits="userSpaceOnUse" x="12" y="52" width="11" height="11">
            <path d="M17.7021 62.4663C20.5857 62.4663 22.9234 60.1781 22.9234 57.3553C22.9234 54.5326 20.5857 52.2444 17.7021 52.2444C14.8184 52.2444 12.4807 54.5326 12.4807 57.3553C12.4807 60.1781 14.8184 62.4663 17.7021 62.4663Z" fill="url(#paint12_linear)"/>
        </mask>
        <g mask="url(#mask6)">
            <path d="M17.7021 62.4663C20.5857 62.4663 22.9234 60.1781 22.9234 57.3553C22.9234 54.5326 20.5857 52.2444 17.7021 52.2444C14.8184 52.2444 12.4807 54.5326 12.4807 57.3553C12.4807 60.1781 14.8184 62.4663 17.7021 62.4663Z" fill="url(#paint13_linear)"/>
        </g>
        <mask id="mask7" mask-type="alpha" maskUnits="userSpaceOnUse" x="42" y="52" width="12" height="11">
            <path d="M47.9424 62.4663C50.8261 62.4663 53.1637 60.1781 53.1637 57.3553C53.1637 54.5326 50.8261 52.2444 47.9424 52.2444C45.0587 52.2444 42.721 54.5326 42.721 57.3553C42.721 60.1781 45.0587 62.4663 47.9424 62.4663Z" fill="url(#paint14_linear)"/>
        </mask>
        <g mask="url(#mask7)">
            <path d="M47.9424 62.4663C50.8261 62.4663 53.1637 60.1781 53.1637 57.3553C53.1637 54.5326 50.8261 52.2444 47.9424 52.2444C45.0587 52.2444 42.721 54.5326 42.721 57.3553C42.721 60.1781 45.0587 62.4663 47.9424 62.4663Z" fill="url(#paint15_linear)"/>
        </g>
        <mask id="mask8" mask-type="alpha" maskUnits="userSpaceOnUse" x="72" y="52" width="12" height="11">
            <path d="M78.1827 62.4663C81.0664 62.4663 83.4041 60.1781 83.4041 57.3553C83.4041 54.5326 81.0664 52.2444 78.1827 52.2444C75.299 52.2444 72.9614 54.5326 72.9614 57.3553C72.9614 60.1781 75.299 62.4663 78.1827 62.4663Z" fill="url(#paint16_linear)"/>
        </mask>
        <g mask="url(#mask8)">
            <path d="M78.1827 62.4663C81.0664 62.4663 83.4041 60.1781 83.4041 57.3553C83.4041 54.5326 81.0664 52.2444 78.1827 52.2444C75.299 52.2444 72.9614 54.5326 72.9614 57.3553C72.9614 60.1781 75.299 62.4663 78.1827 62.4663Z" fill="url(#paint17_linear)"/>
        </g>
        <mask id="mask9" mask-type="alpha" maskUnits="userSpaceOnUse" x="12" y="77" width="11" height="12">
            <path d="M17.7021 88.1277C20.5857 88.1277 22.9234 85.8394 22.9234 83.0167C22.9234 80.1939 20.5857 77.9057 17.7021 77.9057C14.8184 77.9057 12.4807 80.1939 12.4807 83.0167C12.4807 85.8394 14.8184 88.1277 17.7021 88.1277Z" fill="url(#paint18_linear)"/>
        </mask>
        <g mask="url(#mask9)">
            <path d="M17.7021 88.1277C20.5857 88.1277 22.9234 85.8394 22.9234 83.0167C22.9234 80.1939 20.5857 77.9057 17.7021 77.9057C14.8184 77.9057 12.4807 80.1939 12.4807 83.0167C12.4807 85.8394 14.8184 88.1277 17.7021 88.1277Z" fill="url(#paint19_linear)"/>
        </g>
        <mask id="mask10" mask-type="alpha" maskUnits="userSpaceOnUse" x="42" y="77" width="12" height="12">
            <path d="M47.9424 88.1277C50.8261 88.1277 53.1637 85.8394 53.1637 83.0167C53.1637 80.1939 50.8261 77.9057 47.9424 77.9057C45.0587 77.9057 42.721 80.1939 42.721 83.0167C42.721 85.8394 45.0587 88.1277 47.9424 88.1277Z" fill="url(#paint20_linear)"/>
        </mask>
        <g mask="url(#mask10)">
            <path d="M47.9424 88.1277C50.8261 88.1277 53.1637 85.8394 53.1637 83.0167C53.1637 80.1939 50.8261 77.9057 47.9424 77.9057C45.0587 77.9057 42.721 80.1939 42.721 83.0167C42.721 85.8394 45.0587 88.1277 47.9424 88.1277Z" fill="url(#paint21_linear)"/>
        </g>
        <mask id="mask11" mask-type="alpha" maskUnits="userSpaceOnUse" x="72" y="77" width="12" height="12">
            <path d="M78.1827 88.1277C81.0664 88.1277 83.4041 85.8394 83.4041 83.0167C83.4041 80.1939 81.0664 77.9057 78.1827 77.9057C75.299 77.9057 72.9614 80.1939 72.9614 83.0167C72.9614 85.8394 75.299 88.1277 78.1827 88.1277Z" fill="url(#paint22_linear)"/>
        </mask>
        <g mask="url(#mask11)">
            <path d="M78.1827 88.1277C81.0664 88.1277 83.4041 85.8394 83.4041 83.0167C83.4041 80.1939 81.0664 77.9057 78.1827 77.9057C75.299 77.9057 72.9614 80.1939 72.9614 83.0167C72.9614 85.8394 75.299 88.1277 78.1827 88.1277Z" fill="url(#paint23_linear)"/>
        </g>
        <mask id="mask12" mask-type="alpha" maskUnits="userSpaceOnUse" x="12" y="103" width="11" height="11">
            <path d="M17.7021 113.736C20.5857 113.736 22.9234 111.448 22.9234 108.625C22.9234 105.802 20.5857 103.514 17.7021 103.514C14.8184 103.514 12.4807 105.802 12.4807 108.625C12.4807 111.448 14.8184 113.736 17.7021 113.736Z" fill="url(#paint24_linear)"/>
        </mask>
        <g mask="url(#mask12)">
            <path d="M17.7021 113.736C20.5857 113.736 22.9234 111.448 22.9234 108.625C22.9234 105.802 20.5857 103.514 17.7021 103.514C14.8184 103.514 12.4807 105.802 12.4807 108.625C12.4807 111.448 14.8184 113.736 17.7021 113.736Z" fill="url(#paint25_linear)"/>
        </g>
        <mask id="mask13" mask-type="alpha" maskUnits="userSpaceOnUse" x="42" y="103" width="12" height="11">
            <path d="M47.9424 113.736C50.8261 113.736 53.1637 111.448 53.1637 108.625C53.1637 105.802 50.8261 103.514 47.9424 103.514C45.0587 103.514 42.721 105.802 42.721 108.625C42.721 111.448 45.0587 113.736 47.9424 113.736Z" fill="url(#paint26_linear)"/>
        </mask>
        <g mask="url(#mask13)">
            <path d="M47.9424 113.736C50.8261 113.736 53.1637 111.448 53.1637 108.625C53.1637 105.802 50.8261 103.514 47.9424 103.514C45.0587 103.514 42.721 105.802 42.721 108.625C42.721 111.448 45.0587 113.736 47.9424 113.736Z" fill="url(#paint27_linear)"/>
        </g>
        <mask id="mask14" mask-type="alpha" maskUnits="userSpaceOnUse" x="72" y="103" width="12" height="11">
            <path d="M78.1827 113.736C81.0664 113.736 83.4041 111.448 83.4041 108.625C83.4041 105.802 81.0664 103.514 78.1827 103.514C75.299 103.514 72.9614 105.802 72.9614 108.625C72.9614 111.448 75.299 113.736 78.1827 113.736Z" fill="url(#paint28_linear)"/>
        </mask>
        <g mask="url(#mask14)">
            <path d="M78.1827 113.736C81.0664 113.736 83.4041 111.448 83.4041 108.625C83.4041 105.802 81.0664 103.514 78.1827 103.514C75.299 103.514 72.9614 105.802 72.9614 108.625C72.9614 111.448 75.299 113.736 78.1827 113.736Z" fill="url(#paint29_linear)"/>
        </g>
    </g>
    <defs>
        <linearGradient id="paint0_linear" x1="59.2605" y1="109.374" x2="-9.81205" y2="-69.7513" gradientUnits="userSpaceOnUse">
            <stop/>
            <stop offset="1" stop-color="white"/>
        </linearGradient>
        <linearGradient id="paint1_linear" x1="59.2605" y1="109.374" x2="-9.81205" y2="-69.7513" gradientUnits="userSpaceOnUse">
            <stop stop-color="#97C3F9"/>
            <stop offset="1" stop-color="#93C1F9"/>
        </linearGradient>
        <linearGradient id="paint2_linear" x1="85.4294" y1="99.2822" x2="16.3568" y2="-79.8427" gradientUnits="userSpaceOnUse">
            <stop/>
            <stop offset="1" stop-color="white"/>
        </linearGradient>
        <linearGradient id="paint3_linear" x1="85.4294" y1="99.2822" x2="16.3568" y2="-79.8427" gradientUnits="userSpaceOnUse">
            <stop stop-color="#97C3F9"/>
            <stop offset="1" stop-color="#93C1F9"/>
        </linearGradient>
        <linearGradient id="paint4_linear" x1="111.599" y1="89.1911" x2="42.5259" y2="-89.9338" gradientUnits="userSpaceOnUse">
            <stop/>
            <stop offset="1" stop-color="white"/>
        </linearGradient>
        <linearGradient id="paint5_linear" x1="111.599" y1="89.1911" x2="42.5259" y2="-89.9338" gradientUnits="userSpaceOnUse">
            <stop stop-color="#97C3F9"/>
            <stop offset="1" stop-color="#93C1F9"/>
        </linearGradient>
        <linearGradient id="paint6_linear" x1="50.33" y1="112.816" x2="-18.7413" y2="-66.3074" gradientUnits="userSpaceOnUse">
            <stop/>
            <stop offset="1" stop-color="white"/>
        </linearGradient>
        <linearGradient id="paint7_linear" x1="50.33" y1="112.816" x2="-18.7413" y2="-66.3074" gradientUnits="userSpaceOnUse">
            <stop stop-color="#97C3F9"/>
            <stop offset="1" stop-color="#93C1F9"/>
        </linearGradient>
        <linearGradient id="paint8_linear" x1="76.4991" y1="102.725" x2="7.42765" y2="-76.3985" gradientUnits="userSpaceOnUse">
            <stop/>
            <stop offset="1" stop-color="white"/>
        </linearGradient>
        <linearGradient id="paint9_linear" x1="76.4991" y1="102.725" x2="7.42765" y2="-76.3985" gradientUnits="userSpaceOnUse">
            <stop stop-color="#97C3F9"/>
            <stop offset="1" stop-color="#93C1F9"/>
        </linearGradient>
        <linearGradient id="paint10_linear" x1="102.668" y1="92.6342" x2="33.5968" y2="-86.4894" gradientUnits="userSpaceOnUse">
            <stop/>
            <stop offset="1" stop-color="white"/>
        </linearGradient>
        <linearGradient id="paint11_linear" x1="102.668" y1="92.6342" x2="33.5968" y2="-86.4894" gradientUnits="userSpaceOnUse">
            <stop stop-color="#97C3F9"/>
            <stop offset="1" stop-color="#93C1F9"/>
        </linearGradient>
        <linearGradient id="paint12_linear" x1="41.3997" y1="116.261" x2="-27.6728" y2="-62.8643" gradientUnits="userSpaceOnUse">
            <stop/>
            <stop offset="1" stop-color="white"/>
        </linearGradient>
        <linearGradient id="paint13_linear" x1="41.3997" y1="116.261" x2="-27.6728" y2="-62.8643" gradientUnits="userSpaceOnUse">
            <stop stop-color="#97C3F9"/>
            <stop offset="1" stop-color="#93C1F9"/>
        </linearGradient>
        <linearGradient id="paint14_linear" x1="67.5687" y1="106.169" x2="-1.5039" y2="-72.9555" gradientUnits="userSpaceOnUse">
            <stop/>
            <stop offset="1" stop-color="white"/>
        </linearGradient>
        <linearGradient id="paint15_linear" x1="67.5687" y1="106.169" x2="-1.5039" y2="-72.9555" gradientUnits="userSpaceOnUse">
            <stop stop-color="#97C3F9"/>
            <stop offset="1" stop-color="#93C1F9"/>
        </linearGradient>
        <linearGradient id="paint16_linear" x1="93.7379" y1="96.0783" x2="24.6652" y2="-83.0466" gradientUnits="userSpaceOnUse">
            <stop/>
            <stop offset="1" stop-color="white"/>
        </linearGradient>
        <linearGradient id="paint17_linear" x1="93.7379" y1="96.0783" x2="24.6652" y2="-83.0466" gradientUnits="userSpaceOnUse">
            <stop stop-color="#97C3F9"/>
            <stop offset="1" stop-color="#93C1F9"/>
        </linearGradient>
        <linearGradient id="paint18_linear" x1="32.4693" y1="119.704" x2="-36.6032" y2="-59.4206" gradientUnits="userSpaceOnUse">
            <stop/>
            <stop offset="1" stop-color="white"/>
        </linearGradient>
        <linearGradient id="paint19_linear" x1="32.4693" y1="119.704" x2="-36.6032" y2="-59.4206" gradientUnits="userSpaceOnUse">
            <stop stop-color="#97C3F9"/>
            <stop offset="1" stop-color="#93C1F9"/>
        </linearGradient>
        <linearGradient id="paint20_linear" x1="58.6384" y1="109.613" x2="-10.4342" y2="-69.5119" gradientUnits="userSpaceOnUse">
            <stop/>
            <stop offset="1" stop-color="white"/>
        </linearGradient>
        <linearGradient id="paint21_linear" x1="58.6384" y1="109.613" x2="-10.4342" y2="-69.5119" gradientUnits="userSpaceOnUse">
            <stop stop-color="#97C3F9"/>
            <stop offset="1" stop-color="#93C1F9"/>
        </linearGradient>
        <linearGradient id="paint22_linear" x1="84.8075" y1="99.5219" x2="15.7349" y2="-79.603" gradientUnits="userSpaceOnUse">
            <stop/>
            <stop offset="1" stop-color="white"/>
        </linearGradient>
        <linearGradient id="paint23_linear" x1="84.8075" y1="99.5219" x2="15.7349" y2="-79.603" gradientUnits="userSpaceOnUse">
            <stop stop-color="#97C3F9"/>
            <stop offset="1" stop-color="#93C1F9"/>
        </linearGradient>
        <linearGradient id="paint24_linear" x1="23.539" y1="123.148" x2="-45.5335" y2="-55.9769" gradientUnits="userSpaceOnUse">
            <stop/>
            <stop offset="1" stop-color="white"/>
        </linearGradient>
        <linearGradient id="paint25_linear" x1="23.539" y1="123.148" x2="-45.5335" y2="-55.9769" gradientUnits="userSpaceOnUse">
            <stop stop-color="#97C3F9"/>
            <stop offset="1" stop-color="#93C1F9"/>
        </linearGradient>
        <linearGradient id="paint26_linear" x1="49.7081" y1="113.057" x2="-19.3645" y2="-66.0682" gradientUnits="userSpaceOnUse">
            <stop/>
            <stop offset="1" stop-color="white"/>
        </linearGradient>
        <linearGradient id="paint27_linear" x1="49.7081" y1="113.057" x2="-19.3645" y2="-66.0682" gradientUnits="userSpaceOnUse">
            <stop stop-color="#97C3F9"/>
            <stop offset="1" stop-color="#93C1F9"/>
        </linearGradient>
        <linearGradient id="paint28_linear" x1="75.8772" y1="102.966" x2="6.80457" y2="-76.1593" gradientUnits="userSpaceOnUse">
            <stop/>
            <stop offset="1" stop-color="white"/>
        </linearGradient>
        <linearGradient id="paint29_linear" x1="75.8772" y1="102.966" x2="6.80457" y2="-76.1593" gradientUnits="userSpaceOnUse">
            <stop stop-color="#97C3F9"/>
            <stop offset="1" stop-color="#93C1F9"/>
        </linearGradient>
    </defs>
</svg>
